<?xml version="1.0" standalone="no"?>
<svg xmlns="http://www.w3.org/2000/svg" viewBox="0 0 206.73828125 53" width="206.73828125" height="53"><rect fill="none" stroke="#6590da" stroke-width="3" width="203.73828125" height="50" x="1.5" y="1.5"></rect><path fill="#0b005d" fill-rule="nonzero" d="M3.57 18.61L3.57 18.61Q1.68 18.61 0 18.30L0 18.30L0 2.63Q1.55 2.44 3.59 2.44Q5.64 2.44 7.29 2.99Q8.95 3.55 10.07 4.58L10.07 4.58Q12.32 6.64 12.32 10.36L12.32 10.36Q12.32 14.52 9.81 16.68L9.81 16.68Q7.56 18.61 3.57 18.61ZM3.05 5.31L3.05 15.75Q3.81 15.89 4.57 15.89Q5.33 15.89 6.21 15.59Q7.09 15.29 7.73 14.66L7.73 14.66Q9.12 13.32 9.12 10.77L9.12 10.77Q9.12 6.57 6.06 5.61L6.06 5.61Q5.05 5.30 3.73 5.30L3.73 5.30L3.41 5.30Q3.23 5.30 3.05 5.31L3.05 5.31ZM14.88 12.29L14.88 12.29Q14.88 10.92 15.35 9.75Q15.82 8.58 16.68 7.70L16.68 7.70Q18.50 5.84 21.46 5.84L21.46 5.84Q23.95 5.84 25.46 7.49L25.46 7.49Q26.95 9.08 26.95 11.50L26.95 11.50Q26.95 12.42 26.81 12.76L26.81 12.76Q25.64 13.09 22.04 13.09L22.04 13.09L17.92 13.09Q18.22 14.34 19.34 15.04Q20.45 15.74 22.23 15.74L22.23 15.74Q24.09 15.74 25.43 15.07L25.43 15.07Q25.78 14.89 25.96 14.74L25.96 14.74Q25.93 15.23 25.90 15.75L25.90 15.75L25.77 17.58Q24.88 18.19 22.89 18.42L22.89 18.42Q22.30 18.49 21.76 18.49L21.76 18.49Q18.79 18.49 16.84 16.76L16.84 16.76Q14.88 15.01 14.88 12.29ZM23.84 10.82L23.84 10.82Q23.36 8.30 21.09 8.30L21.09 8.30Q19.31 8.30 18.39 9.83L18.39 9.83Q18.11 10.30 17.95 10.86L17.95 10.86Q18.23 10.88 18.64 10.89L18.64 10.89L19.51 10.89Q19.95 10.90 20.34 10.90L20.34 10.90L21.01 10.90Q21.61 10.90 22.18 10.89L22.18 10.89L23.14 10.85Q23.53 10.84 23.84 10.82ZM31.76 4.48L29.12 2.58Q30.06 1.11 31.08 0L31.08 0L33.60 1.98Q33.09 2.60 32.66 3.20L32.66 3.20Q32.66 3.20 31.76 4.48L31.76 4.48ZM32.20 6.07L32.20 17.00Q32.20 18.01 32.25 18.32L32.25 18.32L29.27 18.32L29.27 6.07L32.20 6.07ZM38.59 10.13L38.59 16.82Q38.59 17.85 38.68 18.32L38.68 18.32L35.74 18.32L35.74 6.07L38.59 6.07L38.59 7.11Q40.14 5.84 41.89 5.84L41.89 5.84Q43.82 5.84 44.96 7.14Q46.11 8.45 46.11 10.58L46.11 10.58L46.11 15.25Q46.11 17.23 46.17 17.63Q46.23 18.02 46.33 18.14Q46.43 18.26 46.50 18.35L46.50 18.35L46.48 18.40Q45.53 18.32 45.09 18.32L45.09 18.32L44.27 18.32Q43.90 18.32 43.27 18.35L43.27 18.35L43.27 11.96Q43.27 8.53 41.18 8.53L41.18 8.53Q39.63 8.53 38.59 10.13L38.59 10.13ZM48.95 12.29L48.95 12.29Q48.95 10.92 49.42 9.75Q49.89 8.58 50.74 7.70L50.74 7.70Q52.57 5.84 55.52 5.84L55.52 5.84Q58.02 5.84 59.53 7.49L59.53 7.49Q61.02 9.08 61.02 11.50L61.02 11.50Q61.02 12.42 60.88 12.76L60.88 12.76Q59.71 13.09 56.11 13.09L56.11 13.09L51.98 13.09Q52.29 14.34 53.40 15.04Q54.52 15.74 56.30 15.74L56.30 15.74Q58.16 15.74 59.50 15.07L59.50 15.07Q59.85 14.89 60.02 14.74L60.02 14.74Q60 15.23 59.96 15.75L59.96 15.75L59.84 17.58Q58.95 18.19 56.95 18.42L56.95 18.42Q56.37 18.49 55.83 18.49L55.83 18.49Q52.85 18.49 50.91 16.76L50.91 16.76Q48.95 15.01 48.95 12.29ZM57.90 10.82L57.90 10.82Q57.42 8.30 55.16 8.30L55.16 8.30Q53.38 8.30 52.45 9.83L52.45 9.83Q52.17 10.30 52.02 10.86L52.02 10.86Q52.30 10.88 52.71 10.89L52.71 10.89L53.58 10.89Q54.01 10.90 54.41 10.90L54.41 10.90L55.08 10.90Q55.68 10.90 56.25 10.89L56.25 10.89L57.21 10.85Q57.60 10.84 57.90 10.82ZM70.20 12.46L65.38 12.46Q64.49 12.46 63.93 12.52L63.93 12.52L63.96 9.62Q64.23 9.69 65.51 9.69L65.51 9.69L70.07 9.69Q71.36 9.69 71.61 9.62L71.61 9.62L71.65 12.52Q71.09 12.46 70.20 12.46L70.20 12.46ZM78 14.94L76.90 18.41Q75.89 18.32 74.54 18.32L74.54 18.32L73.62 18.32L78.71 4.03Q79.05 3.07 79.05 2.91Q79.05 2.75 79.04 2.72L79.04 2.72L79.05 2.70Q79.82 2.73 80.67 2.73L80.67 2.73Q81.38 2.73 82.36 2.71L82.36 2.71L82.37 2.73Q82.35 2.78 82.35 2.86L82.35 2.86Q82.35 3.08 82.70 4.04L82.70 4.04L87.90 18.35Q87.67 18.34 87.35 18.34L87.35 18.34Q87.35 18.34 86.74 18.32L86.74 18.32Q86.45 18.32 86.21 18.32L86.21 18.32L84.40 18.32L83.30 14.94L78 14.94ZM78.89 12.13L82.38 12.13L80.61 6.68L78.89 12.13ZM92.43 0.88L92.43 6.52Q93.74 5.84 95.11 5.84Q96.48 5.84 97.47 6.26Q98.46 6.69 99.21 7.49L99.21 7.49Q100.84 9.26 100.84 11.96L100.84 11.96Q100.84 14.93 99.07 16.75L99.07 16.75Q97.37 18.49 94.84 18.49L94.84 18.49Q92.61 18.49 91.17 17.33L91.17 17.33Q89.55 16.02 89.55 13.71L89.55 13.71L89.55 0.88L92.43 0.88ZM92.43 9.48L92.43 13.68Q92.43 15.74 94.99 15.74L94.99 15.74Q96.25 15.74 97.10 14.64L97.10 14.64Q97.97 13.51 97.97 11.84L97.97 11.84Q97.97 10.15 97.05 9.29L97.05 9.29Q96.23 8.53 94.85 8.53L94.85 8.53Q94.02 8.53 93.01 9.09L93.01 9.09Q92.70 9.27 92.43 9.48L92.43 9.48ZM102.52 12.26L102.52 12.26Q102.52 10.97 102.96 9.79Q103.39 8.61 104.21 7.73L104.21 7.73Q106.01 5.84 108.87 5.84L108.87 5.84Q111.71 5.84 113.39 7.63L113.39 7.63Q115.00 9.34 115.00 12.07L115.00 12.07Q115.00 14.80 113.34 16.59L113.34 16.59Q111.60 18.49 108.71 18.49L108.71 18.49Q105.74 18.49 104.05 16.63L104.05 16.63Q102.52 14.93 102.52 12.26ZM105.36 12.19L105.36 12.19Q105.36 12.93 105.61 13.62Q105.86 14.31 106.31 14.80L106.31 14.80Q107.29 15.87 108.87 15.87L108.87 15.87Q110.33 15.87 111.18 14.82L111.18 14.82Q112.00 13.82 112.00 12.20L112.00 12.20Q112.00 10.56 111.15 9.55L111.15 9.55Q110.25 8.47 108.68 8.47L108.68 8.47Q107.09 8.47 106.18 9.62L106.18 9.62Q105.36 10.68 105.36 12.19ZM121.56 18.49L121.56 18.49Q118.25 18.49 116.58 17.29L116.58 17.29Q116.60 16.93 116.65 16.49L116.65 16.49L116.75 15.64Q116.85 14.81 116.87 14.61Q116.89 14.40 116.91 14.38Q116.92 14.37 117.09 14.57Q117.27 14.78 117.76 15.07Q118.25 15.36 118.90 15.59L118.90 15.59Q120.29 16.07 121.80 16.07L121.80 16.07Q123.83 16.07 123.83 14.72L123.83 14.72Q123.83 14.29 123.45 14.07L123.45 14.07Q122.75 13.72 121.41 13.54Q120.07 13.36 119.21 13.01Q118.36 12.66 117.82 12.16L117.82 12.16Q116.82 11.24 116.82 9.74L116.82 9.74Q116.82 7.91 118.23 6.87L118.23 6.87Q119.63 5.84 122.09 5.84L122.09 5.84Q124.52 5.84 126.25 7.22L126.25 7.22Q126.16 7.52 126.07 7.80L126.07 7.80Q125.80 8.58 125.67 8.92L125.67 8.92L125.40 9.61Q125.38 9.70 125.37 9.70L125.37 9.70Q125.34 9.70 125.18 9.46L125.18 9.46Q124.44 8.60 122.88 8.33L122.88 8.33Q122.40 8.24 121.90 8.24L121.90 8.24Q119.77 8.24 119.77 9.53L119.77 9.53Q119.77 9.97 120.21 10.21L120.21 10.21Q121.04 10.65 122.49 10.86Q123.94 11.07 124.69 11.43Q125.44 11.79 125.89 12.29L125.89 12.29Q126.74 13.21 126.74 14.72L126.74 14.72Q126.74 16.37 125.41 17.40L125.41 17.40Q124.03 18.49 121.56 18.49Z" transform="translate(12 17.196)"></path><line x1="150.739" y1="0" x2="150.739" y2="100%" stroke="#6590da" stroke-width="3"></line><g fill="#0b005d" color="#0b005d" transform="translate(164.239, 12.001) scale(0.29)"><svg width="100.0" height="100.0" x="0.0" y="0.0" viewBox="0 0 100 100"><g><path d="M47.3,14.6h34.4c2.1,0,3.9,1.7,3.9,3.9v34.4c0,2.1-1.7,3.9-3.9,3.9v5c4.9,0,8.9-4,8.9-8.9V18.4c0-4.9-4-8.9-8.9-8.9H47.3   c-4.9,0-8.9,4-8.9,8.9h5C43.4,16.3,45.1,14.6,47.3,14.6z"></path><path d="M32.8,28.9h34.4c2.1,0,3.9,1.7,3.9,3.9v34.4c0,2.1-1.7,3.9-3.9,3.9v5c4.9,0,8.9-4,8.9-8.9V32.8c0-4.9-4-8.9-8.9-8.9H32.8   c-4.9,0-8.9,4-8.9,8.9h5C28.9,30.7,30.6,28.9,32.8,28.9z"></path><path d="M18.4,90.5h34.4c4.9,0,8.9-4,8.9-8.9V47.2c0-4.9-4-8.9-8.9-8.9H18.4c-4.9,0-8.9,4-8.9,8.9v34.4   C9.5,86.5,13.5,90.5,18.4,90.5z M14.5,47.2c0-2.1,1.7-3.9,3.9-3.9h34.4c2.1,0,3.9,1.7,3.9,3.9v34.4c0,2.1-1.7,3.9-3.9,3.9H18.4   c-2.1,0-3.9-1.7-3.9-3.9V47.2z"></path></g></svg></g></svg>